<svg width="45" height="44" viewBox="0 0 45 44" fill="none" xmlns="http://www.w3.org/2000/svg">
<path fill-rule="evenodd" clip-rule="evenodd" d="M12.4124 10.3477C11.4396 10.3477 10.6504 11.1128 10.6504 12.0554V32.4811C10.6504 33.4238 11.4396 34.1883 12.4124 34.1883H32.729C33.7022 34.1883 34.491 33.4237 34.491 32.4808V12.0554C34.491 11.1128 33.7022 10.3477 32.729 10.3477H12.4124ZM17.8951 19.5661V30.2992H14.3276V19.5661H17.8951ZM18.1303 16.2467C18.1303 17.2767 17.3559 18.1009 16.1121 18.1009L16.0887 18.1008C14.8914 18.1008 14.1173 17.2766 14.1173 16.2466C14.1173 15.1933 14.9148 14.3921 16.1358 14.3921C17.3559 14.3921 18.107 15.1933 18.1303 16.2467ZM23.4371 30.2992H19.8698C19.8698 30.2992 19.9166 20.5733 19.87 19.5664H23.4373V21.0857C23.9116 20.3545 24.7603 19.3144 26.6526 19.3144C28.9996 19.3144 30.7594 20.8485 30.7594 24.1451V30.2992H27.1922V24.5579C27.1922 23.1149 26.6757 22.1307 25.3851 22.1307C24.3993 22.1307 23.8124 22.7944 23.5546 23.4356C23.4603 23.6644 23.4371 23.9856 23.4371 24.306V30.2992Z" fill="#006699"/>
</svg>
