<svg width="134" height="152" viewBox="0 0 134 152" fill="none" xmlns="http://www.w3.org/2000/svg">
<g style="mix-blend-mode:multiply">
<path d="M102.777 124.313H102.057L101.961 123.621C101.777 122.246 101.601 121.056 101.441 120.002C100.705 115.081 100.401 113.046 101.945 110.618C103.49 108.189 105.619 106.653 107.675 105.181C109.892 103.573 111.981 102.093 113.469 99.5035C114.862 97.0909 114.798 94.3968 113.301 92.5231C111.501 90.2633 108.099 89.636 104.202 90.8503C102.452 91.3973 100.756 92.1054 99.1361 92.9654C95.5028 94.8231 95.0786 94.1556 91.0051 87.8105L89.6126 85.607L89.2204 85.0119L89.7646 84.5535C98.3038 77.372 108.764 75.1524 117.775 78.6265C124.378 81.1758 128.835 86.3388 129.684 92.4266C130.644 99.3346 126.842 106.428 118.96 112.395C114.046 116.118 114.246 118.515 114.398 120.268C114.5 120.701 114.506 121.152 114.417 121.588C114.327 122.025 114.143 122.436 113.878 122.793C112.805 123.967 110.212 124.313 102.777 124.313ZM107.939 88.6388C109.189 88.5784 110.437 88.8065 111.585 89.3056C112.734 89.8046 113.753 90.5614 114.566 91.5178C116.479 93.9304 116.599 97.292 114.87 100.308C113.213 103.203 110.869 104.867 108.62 106.492C106.603 107.94 104.69 109.307 103.306 111.486C102.089 113.408 102.353 115.137 103.042 119.761C103.17 120.638 103.322 121.611 103.474 122.705C107.699 122.705 111.933 122.544 112.677 121.723C112.869 121.514 112.845 121.136 112.789 120.421C112.629 118.539 112.357 115.386 117.975 111.124C125.37 105.495 128.963 98.9727 128.083 92.6678C127.283 87.1671 123.241 82.4867 117.183 80.1465C108.932 76.9297 99.3202 78.908 91.3412 85.3496L92.3656 86.958C94.2943 89.9657 95.3587 91.6224 96.111 92.1371C96.5672 92.4507 96.9113 92.322 98.4239 91.55C100.126 90.6462 101.907 89.9031 103.746 89.3304C105.101 88.8892 106.515 88.656 107.939 88.6388Z" fill="#A1DEDE"/>
</g>
<g style="mix-blend-mode:multiply">
<path d="M107.291 148.494C103.29 148.494 99.2884 145.792 99.2884 140.621C99.2884 135.45 103.33 132.78 107.291 132.78C111.253 132.78 115.374 135.474 115.374 140.621C115.374 145.768 111.309 148.494 107.291 148.494ZM107.291 134.388C104.194 134.388 100.889 136.342 100.889 140.621C100.889 144.899 104.218 146.885 107.291 146.885C110.364 146.885 113.774 144.923 113.774 140.621C113.774 136.318 110.413 134.388 107.291 134.388Z" fill="#A1DEDE"/>
</g>
<g style="mix-blend-mode:multiply">
<path d="M102.777 127.787H99.0555L98.5513 124.088C98.3753 122.761 98.1992 121.603 98.0472 120.573C97.2469 115.386 96.8067 112.282 99.0395 108.76C100.952 105.744 103.465 103.935 105.682 102.326L106.482 101.779L107.419 103.082L106.618 103.637C104.514 105.141 102.137 106.854 100.392 109.596C98.4793 112.612 98.8635 115.169 99.5917 120.26C99.7518 121.345 99.9279 122.512 100.112 123.846L100.424 126.155H102.745C110.164 126.155 113.533 125.865 115.19 124.048C115.637 123.506 115.959 122.872 116.134 122.191C116.308 121.51 116.33 120.798 116.198 120.107C116.054 118.426 116.198 116.818 119.791 114.059L120.768 115.33C117.606 117.743 117.703 118.893 117.791 119.97C117.946 120.884 117.899 121.82 117.654 122.714C117.41 123.607 116.972 124.436 116.374 125.141C114.365 127.425 111.06 127.787 102.777 127.787Z" fill="#A1DEDE"/>
<path d="M112.461 97.1795L110.916 96.7533C110.992 96.4921 111.03 96.2212 111.028 95.9491C111.038 95.5864 110.949 95.2279 110.772 94.9117C110.63 94.6712 110.439 94.4631 110.212 94.3005L111.141 92.9896C111.555 93.2846 111.902 93.6658 112.157 94.1075C112.473 94.6686 112.636 95.3041 112.629 95.9491C112.628 96.3649 112.572 96.7788 112.461 97.1795Z" fill="#A1DEDE"/>
<path d="M96.5584 97.364C93.0371 97.364 91.4925 94.9515 88.1153 89.692L84.658 84.3441L87.5471 81.9315C94.6137 75.9804 102.841 73.0853 111.092 73.6724L110.98 75.2808C103.137 74.7259 95.318 77.4923 88.5714 83.17L86.7628 84.6899L89.4518 88.8556C92.653 93.898 93.9014 95.7878 96.5504 95.7878C97.7688 95.6979 98.9471 95.3115 99.9837 94.6619C101.519 93.8473 103.126 93.1795 104.786 92.6675C105.53 92.4288 106.297 92.2671 107.074 92.185L107.234 93.7934C106.566 93.8665 105.906 94.0066 105.266 94.2116C103.703 94.6975 102.189 95.3303 100.744 96.1015C99.4737 96.8626 98.0359 97.2963 96.5584 97.364Z" fill="#A1DEDE"/>
<path d="M130.523 104.707L129.123 103.902C130.756 101.073 131.632 97.868 131.668 94.5978C131.665 93.3119 131.517 92.0304 131.228 90.7779L132.828 90.416C133.148 91.7868 133.309 93.19 133.309 94.5978C133.261 98.152 132.301 101.634 130.523 104.707Z" fill="#A1DEDE"/>
</g>
<g style="mix-blend-mode:multiply">
<path d="M107.291 152C101.585 152 95.8066 148.108 95.8066 140.661C95.8066 133.214 101.585 129.346 107.291 129.346C112.997 129.346 118.863 133.27 118.863 140.621C118.891 142.715 118.337 144.776 117.263 146.572L115.894 145.767C116.813 144.223 117.284 142.452 117.255 140.653C117.255 134.348 112.133 130.946 107.315 130.946C102.497 130.946 97.4312 134.283 97.4312 140.653C97.4312 147.022 102.377 150.392 107.291 150.392V152Z" fill="#A1DEDE"/>
</g>
<g style="mix-blend-mode:multiply">
<path d="M58.9129 81.9879H58.2087L58.1206 81.2882C57.8005 78.9319 57.4884 76.8812 57.2163 75.0718C55.9758 66.7644 55.4636 63.3305 58.0166 59.3417C60.5936 55.2322 64.2029 52.6347 67.7002 50.1497C71.3896 47.5039 75.199 44.7777 77.816 40.2098C80.3209 35.8269 80.2169 30.9857 77.4799 27.5759C74.2306 23.4986 68.1564 22.3486 61.2418 24.4878C58.2016 25.4395 55.2548 26.6697 52.4385 28.1629C46.6684 31.1143 46.2442 30.4549 39.2096 19.5017C38.4813 18.3678 37.681 17.0891 36.8087 15.7461L36.4245 15.143L36.9687 14.6926C51.4301 2.49297 69.1968 -1.24655 84.4505 4.61605C95.6066 8.92655 103.129 17.6199 104.554 27.8734C106.155 39.5263 99.7522 51.5249 86.3472 61.6497C77.6479 68.2361 78.0481 72.7396 78.2802 75.691C78.4082 77.1386 78.5202 78.5137 77.5359 79.5914C75.8793 81.4008 71.3496 81.9879 58.9129 81.9879ZM67.7882 21.8259C72.382 21.8259 76.2474 23.4343 78.7283 26.5706C81.8655 30.5112 82.0496 36.0441 79.2005 41.0462C76.3514 46.0483 72.454 48.7504 68.6286 51.5008C65.1072 54.0179 61.778 56.3983 59.3451 60.2424C57.1363 63.7326 57.5924 66.7644 58.8009 74.8707C59.049 76.4791 59.3211 78.3449 59.6012 80.4197C70.4292 80.4197 75.143 79.8648 76.3514 78.5459C76.8396 78.0071 76.7996 77.2592 76.6796 75.8679C76.3995 72.5466 75.9753 67.5204 85.3788 60.3952C98.2636 50.6483 104.506 39.1885 102.985 28.1388C101.641 18.4885 94.5022 10.2535 83.8903 6.16011C69.3568 0.506599 52.4385 4.0129 38.5053 15.4808L40.5381 18.6493C43.8993 23.8766 45.748 26.7556 47.1405 27.7126C48.2209 28.4605 49.0933 28.0745 51.7022 26.7395C54.5957 25.2074 57.6228 23.9449 60.7456 22.9678C63.0235 22.2369 65.3972 21.852 67.7882 21.8259Z" fill="#0A8485"/>
</g>
<g style="mix-blend-mode:multiply">
<path d="M66.676 115.853C60.2736 115.853 53.447 111.832 53.447 102.913C53.447 93.9946 60.3056 90.0057 66.676 90.0057C73.2944 90.0057 79.9849 94.4369 79.9849 102.913C79.9849 111.389 73.2944 115.853 66.676 115.853ZM66.676 91.6141C61.0739 91.6141 55.0476 95.1526 55.0476 102.913C55.0476 110.674 61.0739 114.244 66.676 114.244C72.2781 114.244 78.3843 110.698 78.3843 102.913C78.3843 95.1285 72.3181 91.6141 66.676 91.6141Z" fill="#0A8485"/>
</g>
<g style="mix-blend-mode:multiply">
<path d="M58.9133 85.7032H54.9838L54.4476 81.7948C54.1355 79.4546 53.8314 77.42 53.5593 75.6186C52.2548 66.893 51.6386 62.5102 54.8398 57.3472C54.9118 57.2185 54.9918 57.0979 55.0799 56.9692L56.4404 57.8619L56.2163 58.2077C53.2712 62.864 53.8954 67.0539 55.1439 75.3854C55.408 77.1868 55.7201 79.2294 56.0402 81.5777L56.3763 84.0948H58.9133C72.3743 84.0948 76.896 83.4113 79.0808 81.0228C79.7372 80.3095 80.1761 79.4219 80.3453 78.4654L81.9459 78.763C81.7258 80.0152 81.1506 81.1769 80.2893 82.1085C77.6803 84.9312 73.0866 85.7032 58.9133 85.7032Z" fill="#0A8485"/>
<path d="M77.456 34.8942L75.8554 34.7012C75.8873 34.4101 75.9033 34.1175 75.9034 33.8246C75.9279 32.6997 75.6515 31.5889 75.1031 30.6078C73.6386 28.0666 70.3014 26.7879 66.2358 27.2061L66.0758 25.5977C70.8295 25.1071 74.703 26.6914 76.4797 29.7956C77.182 31.0171 77.5441 32.406 77.528 33.8166C77.5241 34.1769 77.5 34.5366 77.456 34.8942Z" fill="#0A8485"/>
<path d="M48.2369 33.4224C43.7152 33.4224 41.6345 30.2057 36.0804 21.5364L33.6795 17.7888L31.5027 14.4273L34.5598 11.8539C40.9187 6.36546 48.3823 2.32198 56.44 0L56.8642 1.5521C49.0255 3.8133 41.7645 7.7468 35.5762 13.0843L33.6075 14.749L35.008 16.9123C35.9043 18.2874 36.7046 19.534 37.4089 20.6679C42.7709 29.0074 44.5716 31.8141 48.2209 31.8141C49.2429 31.7889 50.2485 31.5507 51.174 31.1144L51.7983 32.6022C50.6794 33.1173 49.4674 33.3965 48.2369 33.4224Z" fill="#0A8485"/>
<path d="M98.9598 54.9107L97.7433 53.8653C103.754 46.7481 106.931 39.0037 106.931 31.4523C106.929 29.4806 106.715 27.5148 106.291 25.5897L107.891 25.2439C108.334 27.2835 108.559 29.3647 108.563 31.4523C108.531 39.3897 105.258 47.496 98.9598 54.9107Z" fill="#0A8485"/>
</g>
<g style="mix-blend-mode:multiply">
<path d="M66.7558 119.568H66.6757C58.2646 119.568 49.7494 113.85 49.7494 102.913C49.7329 100.985 50.0275 99.068 50.6218 97.2353L52.1423 97.7419C51.6004 99.4111 51.3302 101.157 51.342 102.913C51.342 112.788 59.0489 117.959 66.6677 117.959L66.7558 119.568ZM81.9615 110.722L80.5369 109.99C81.621 107.792 82.1696 105.366 82.1375 102.913C82.2055 99.7512 81.263 96.6507 79.4485 94.0668L80.745 93.1259C82.7658 95.9912 83.8153 99.434 83.7381 102.945C83.7555 105.645 83.1327 108.311 81.9214 110.722H81.9615Z" fill="#0A8485"/>
</g>
<g style="mix-blend-mode:multiply">
<path d="M17.7294 71.7991H17.0251L16.9291 71.1317C16.761 69.861 16.593 68.7191 16.4489 67.7862C15.7846 63.3551 15.4885 61.3526 16.9211 59.0607C18.3536 56.7687 20.3303 55.3774 22.2431 54.0103C24.2838 52.5467 26.2446 51.1634 27.5811 48.783C28.8535 46.5554 28.7975 44.1106 27.429 42.3977C25.8284 40.3229 22.6272 39.7519 19.0819 40.8617C17.4664 41.3713 15.8995 42.0253 14.4001 42.8159C10.9909 44.561 10.5987 43.9417 6.8053 38.0309L5.50081 36.0043L5.11667 35.4092L5.65287 34.9508C13.5678 28.2921 23.2594 26.2333 31.6066 29.4581C37.7368 31.8707 41.8744 36.6155 42.6667 42.269C43.555 48.7026 40.0257 55.2648 32.719 60.7656C28.1973 64.1914 28.3894 66.3949 28.5254 68.0033C28.6238 68.4179 28.6296 68.8493 28.5425 69.2664C28.4553 69.6836 28.2773 70.0761 28.0212 70.4159C27.0369 71.4694 24.628 71.7991 17.7294 71.7991ZM22.5312 38.6742C23.6941 38.6234 24.8532 38.8404 25.9199 39.3088C26.9865 39.7771 27.9325 40.4843 28.6855 41.3764C30.4701 43.6201 30.5742 46.7564 28.9656 49.5631C27.357 52.3697 25.2282 53.8012 23.1714 55.297C21.3067 56.6561 19.5381 57.8946 18.2736 59.8729C17.1612 61.626 17.3933 63.2264 18.0335 67.4886C18.1535 68.2928 18.2816 69.1694 18.4256 70.1586C22.3071 70.1586 26.1725 70.0058 26.8448 69.274C27.0048 69.097 26.9808 68.7351 26.9248 68.1159C26.7808 66.3547 26.5327 63.4194 31.7266 59.4547C38.5772 54.3239 41.8904 48.2764 41.0741 42.4701C40.3698 37.4036 36.6164 33.0931 31.0303 30.9218C23.4355 28.0026 14.5842 29.7879 7.22946 35.747L8.1498 37.1704C9.92646 39.9449 10.9108 41.4729 11.5991 41.9473C11.9752 42.2047 12.2313 42.1403 13.6799 41.4005C15.2547 40.5651 16.9021 39.876 18.6017 39.3417C19.8637 38.9273 21.1797 38.7023 22.5072 38.6742H22.5312Z" fill="#035959"/>
</g>
<g style="mix-blend-mode:multiply">
<path d="M17.7293 75.1525H14.128L13.6398 71.5658C13.4717 70.3354 13.3117 69.2497 13.1676 68.3007C12.4394 63.4756 12.0072 60.5724 14.112 57.2511C15.8967 54.4283 18.2415 52.7556 20.3143 51.2759C21.1146 50.729 21.7949 50.2143 22.4431 49.6675L23.4675 50.9059C22.7712 51.485 22.0269 52.0157 21.2426 52.5787C18.9671 54.0186 17.0022 55.9027 15.4645 58.1196C13.6798 60.9262 14.04 63.2986 14.7442 68.0273C14.8963 69.0245 15.0563 70.1102 15.2244 71.3486L15.5205 73.5441H17.7293C24.6119 73.5441 27.7411 73.2707 29.2937 71.5738C29.7109 71.0626 30.0116 70.4658 30.1748 69.8253C30.3379 69.1849 30.3595 68.5162 30.238 67.8665C30.102 66.2581 30.278 64.8025 33.7593 62.1647C34.1915 61.843 34.6076 61.5053 35.0158 61.1755L36.0322 62.4221C35.608 62.7679 35.1678 63.1137 34.7197 63.4514C31.6705 65.7595 31.7506 66.7165 31.8386 67.7298C31.9803 68.602 31.9312 69.4948 31.6949 70.3462C31.4586 71.1975 31.0406 71.9869 30.4701 72.6595C28.5414 74.7665 25.4522 75.1525 17.7293 75.1525Z" fill="#035959"/>
<path d="M26.5968 46.7079L25.0602 46.2495C25.1371 46.0104 25.1775 45.7609 25.1802 45.5096C25.1828 45.2064 25.1084 44.9075 24.9641 44.6411L26.2606 43.7002C26.2929 43.7466 26.3223 43.795 26.3487 43.845C26.6361 44.3519 26.7851 44.9262 26.7808 45.5096C26.7773 45.9159 26.7153 46.3195 26.5968 46.7079Z" fill="#035959"/>
<path d="M11.9832 47.0053C8.62196 47.0053 7.18142 44.7536 3.98022 39.8238L3.89219 39.6791C3.52405 39.1161 3.13191 38.4889 2.68374 37.8133L0.690994 34.7333L3.49204 32.3689C9.51829 27.3025 16.4329 24.6165 23.4995 24.6165C24.7927 24.6183 26.0842 24.7097 27.365 24.8899L27.1329 26.4983C25.9292 26.3272 24.7151 26.2412 23.4995 26.2409C16.833 26.2409 10.2786 28.7902 4.54843 33.6235L2.81979 35.0389L4.04425 36.9287L5.2527 38.8025L5.34073 38.9473C8.54192 43.9494 9.59032 45.3808 11.9752 45.3808C13.1114 45.2954 14.21 44.9338 15.1764 44.3273C16.5992 43.5796 18.089 42.9684 19.6261 42.5018C20.9672 42.0357 22.402 41.9087 23.8036 42.1319L23.4835 43.7403C22.3478 43.5736 21.1888 43.6867 20.1062 44.07C18.6701 44.5156 17.2794 45.0972 15.9527 45.8071C14.7486 46.5304 13.3847 46.9422 11.9832 47.0053Z" fill="#035959"/>
<path d="M44.0356 52.7957L42.603 52.072C43.8546 49.6537 44.5209 46.9728 44.5478 44.2471C44.5437 43.0507 44.4068 41.8585 44.1396 40.6926L45.6922 40.3226C45.9947 41.6087 46.1477 42.9256 46.1484 44.2471C46.1213 47.2238 45.3975 50.1522 44.0356 52.7957Z" fill="#035959"/>
</g>
<g style="mix-blend-mode:multiply">
<path d="M21.9069 98.5624C16.5289 98.5624 11.0869 94.8953 11.0869 87.8827C11.0869 80.8701 16.5289 77.2271 21.9069 77.2271C27.285 77.2271 32.767 80.9585 32.767 87.8827C32.8048 89.5083 32.4572 91.1195 31.7531 92.5836C31.049 94.0476 30.0085 95.3223 28.7175 96.3026L27.7491 95.0239C28.849 94.1982 29.7341 93.1177 30.3291 91.8743C30.924 90.631 31.2113 89.2616 31.1664 87.8827C31.1664 82.004 26.3646 78.8354 21.9069 78.8354C17.4493 78.8354 12.6875 81.9477 12.6875 87.8827C12.6875 93.8176 17.3292 96.954 21.9069 96.954V98.5624Z" fill="#035959"/>
</g>
<g style="mix-blend-mode:multiply">
<path d="M21.9072 95.2575C18.1858 95.2575 14.4164 92.7323 14.4164 87.9151C14.4164 83.098 18.1858 80.605 21.9072 80.605C25.6286 80.605 29.438 83.1141 29.438 87.9151C29.438 92.7162 25.6526 95.2575 21.9072 95.2575ZM21.9072 82.2134C19.0741 82.2134 16.017 83.9987 16.017 87.9151C16.017 91.8316 19.0741 93.6491 21.9072 93.6491C24.7402 93.6491 27.8374 91.8557 27.8374 87.9151C27.873 87.108 27.7291 86.303 27.4163 85.5588C27.1034 84.8145 26.6294 84.1497 26.0287 83.6127C24.868 82.6582 23.4067 82.1507 21.9072 82.1812V82.2134Z" fill="#035959"/>
</g>
</svg>
