<svg width="45" height="44" viewBox="0 0 45 44" fill="none" xmlns="http://www.w3.org/2000/svg">
<path d="M33.063 15.8577C32.4034 16.1416 31.7099 16.3393 30.9998 16.4458C31.3318 16.3889 31.8203 15.7913 32.0148 15.5494C32.3102 15.1845 32.5354 14.768 32.6789 14.3209C32.6789 14.2877 32.7121 14.2403 32.6789 14.2166C32.6621 14.2074 32.6434 14.2026 32.6243 14.2026C32.6052 14.2026 32.5865 14.2074 32.5698 14.2166C31.7986 14.6342 30.9779 14.9529 30.127 15.1652C30.0974 15.1742 30.0658 15.1751 30.0357 15.1675C30.0056 15.16 29.9782 15.1444 29.9563 15.1225C29.89 15.0436 29.8187 14.9692 29.7428 14.8996C29.3958 14.5886 29.002 14.3341 28.576 14.1454C28.0009 13.9095 27.3797 13.8073 26.7594 13.8466C26.1574 13.8846 25.5697 14.0461 25.0329 14.3209C24.5042 14.6107 24.0395 15.0043 23.6668 15.4782C23.2748 15.966 22.9918 16.5321 22.8368 17.1383C22.709 17.715 22.6945 18.3111 22.7941 18.8933C22.7941 18.9929 22.7941 19.0072 22.7087 18.9929C19.3268 18.4949 16.5521 17.2949 14.2848 14.7193C14.1852 14.6055 14.1331 14.6055 14.0524 14.7193C13.0658 16.2182 13.5449 18.5898 14.7781 19.7613C14.9441 19.9178 15.1149 20.0696 15.2951 20.2119C14.7297 20.1718 14.1781 20.0186 13.673 19.7613C13.5781 19.6997 13.5259 19.7329 13.5212 19.8467C13.5077 20.0045 13.5077 20.1632 13.5212 20.321C13.6202 21.0774 13.9182 21.7938 14.3849 22.3972C14.8516 23.0006 15.4702 23.4692 16.1774 23.7551C16.3498 23.8289 16.5294 23.8846 16.7133 23.9211C16.1899 24.0241 15.653 24.0402 15.1244 23.9685C15.0105 23.9448 14.9679 24.0065 15.0105 24.1156C15.7078 26.0128 17.2209 26.5915 18.3308 26.914C18.4825 26.9377 18.6343 26.9377 18.8051 26.9757C18.8051 26.9757 18.8051 26.9757 18.7766 27.0041C18.4493 27.6018 17.126 28.005 16.5189 28.2137C15.4107 28.6117 14.2292 28.7638 13.0564 28.6595C12.8714 28.6311 12.8287 28.6358 12.7812 28.6595C12.7338 28.6832 12.7812 28.7354 12.8334 28.7828C13.0706 28.9394 13.3077 29.0769 13.5544 29.2097C14.2886 29.6102 15.0649 29.9284 15.8691 30.1584C20.0336 31.3062 24.7198 30.4619 27.8456 27.3551C30.3025 24.9171 31.1658 21.5542 31.1658 18.1866C31.1658 18.0585 31.3223 17.9826 31.4124 17.9162C32.034 17.4319 32.582 16.8599 33.0393 16.2182C33.1185 16.1225 33.1591 16.0007 33.1532 15.8767C33.1532 15.8055 33.1532 15.8197 33.063 15.8577Z" fill="#33CCFF"/>
</svg>
