<svg width="44" height="44" viewBox="0 0 44 44" fill="none" xmlns="http://www.w3.org/2000/svg">
<path d="M11.2598 33.036L12.825 27.2213C11.5627 24.9561 11.1616 22.3129 11.6954 19.7766C12.2292 17.2404 13.6621 14.9812 15.7311 13.4136C17.8001 11.846 20.3664 11.0753 22.9592 11.2427C25.5519 11.4102 27.9972 12.5047 29.8462 14.3253C31.6952 16.1459 32.824 18.5706 33.0255 21.1543C33.2269 23.7381 32.4874 26.3076 30.9428 28.3915C29.3981 30.4753 27.1519 31.9337 24.6163 32.4989C22.0806 33.0641 19.4257 32.6983 17.1386 31.4686L11.2598 33.036ZM17.4221 29.2927L17.7857 29.5078C19.4423 30.4872 21.3771 30.8925 23.2887 30.6605C25.2003 30.4286 26.9813 29.5724 28.3541 28.2254C29.7269 26.8784 30.6145 25.1162 30.8784 23.2136C31.1424 21.3109 30.7679 19.3746 29.8134 17.7064C28.8588 16.0381 27.3779 14.7317 25.6013 13.9907C23.8246 13.2497 21.8522 13.1156 19.9912 13.6095C18.1303 14.1034 16.4854 15.1975 15.3129 16.7212C14.1404 18.2449 13.5062 20.1127 13.509 22.0335C13.5075 23.6261 13.949 25.188 14.7846 26.5451L15.0126 26.9201L14.1376 30.1655L17.4221 29.2927Z" fill="#00D95F"/>
<path fill-rule="evenodd" clip-rule="evenodd" d="M26.2464 23.5266C26.0333 23.3551 25.7837 23.2344 25.5167 23.1737C25.2498 23.113 24.9724 23.1138 24.7058 23.1762C24.3053 23.3422 24.0465 23.9691 23.7876 24.2826C23.7331 24.3578 23.6529 24.4105 23.5621 24.4308C23.4713 24.4512 23.3762 24.4378 23.2946 24.3933C21.8282 23.8204 20.599 22.7698 19.8068 21.4121C19.7392 21.3274 19.7072 21.2198 19.7175 21.1121C19.7279 21.0043 19.7798 20.9047 19.8622 20.8343C20.1509 20.5493 20.3628 20.1962 20.4785 19.8078C20.5041 19.3794 20.4057 18.9527 20.195 18.5785C20.0321 18.0539 19.722 17.5868 19.3014 17.2324C19.0845 17.1351 18.844 17.1024 18.6089 17.1384C18.3738 17.1744 18.1542 17.2775 17.9765 17.4352C17.6681 17.7007 17.4233 18.0317 17.2601 18.4041C17.0969 18.7764 17.0196 19.1805 17.0337 19.5866C17.0347 19.8146 17.0636 20.0417 17.12 20.2627C17.2631 20.7937 17.4831 21.301 17.7732 21.7686C17.9825 22.1268 18.2108 22.4736 18.4572 22.8074C19.258 23.904 20.2647 24.835 21.4213 25.5488C22.0017 25.9116 22.622 26.2065 23.27 26.4278C23.9431 26.7322 24.6863 26.849 25.4207 26.7659C25.8391 26.7027 26.2355 26.5379 26.575 26.286C26.9146 26.0342 27.1869 25.7029 27.368 25.3214C27.4743 25.0909 27.5066 24.8333 27.4604 24.5838C27.3495 24.0736 26.6654 23.7724 26.2464 23.5266Z" fill="#00D95F"/>
</svg>
